<?xml version="1.0" encoding="UTF-8" standalone="no"?>
<svg
   xmlns:dc="http://purl.org/dc/elements/1.1/"
   xmlns:cc="http://creativecommons.org/ns#"
   xmlns:rdf="http://www.w3.org/1999/02/22-rdf-syntax-ns#"
   xmlns:svg="http://www.w3.org/2000/svg"
   xmlns="http://www.w3.org/2000/svg"
   xmlns:sodipodi="http://sodipodi.sourceforge.net/DTD/sodipodi-0.dtd"
   xmlns:inkscape="http://www.inkscape.org/namespaces/inkscape"
   t="1614562225256"
   class="icon"
   viewBox="0 0 1024 1024"
   version="1.1"
   p-id="6484"
   width="128"
   height="128"
   id="svg8"
   sodipodi:docname="识别.svg"
   inkscape:version="1.0.2 (e86c870879, 2021-01-15)">
  <metadata
     id="metadata12">
    <rdf:RDF>
      <cc:Work
         rdf:about="">
        <dc:format>image/svg+xml</dc:format>
        <dc:type
           rdf:resource="http://purl.org/dc/dcmitype/StillImage" />
      </cc:Work>
    </rdf:RDF>
  </metadata>
  <sodipodi:namedview
     pagecolor="#ffffff"
     bordercolor="#666666"
     borderopacity="1"
     objecttolerance="10"
     gridtolerance="10"
     guidetolerance="10"
     inkscape:pageopacity="0"
     inkscape:pageshadow="2"
     inkscape:window-width="1359"
     inkscape:window-height="893"
     id="namedview10"
     showgrid="false"
     inkscape:zoom="3.5234375"
     inkscape:cx="64.408519"
     inkscape:cy="67.902306"
     inkscape:window-x="534"
     inkscape:window-y="119"
     inkscape:window-maximized="0"
     inkscape:current-layer="svg8" />
  <defs
     id="defs4">
    <style
       type="text/css"
       id="style2" />
  </defs>
  <path
     d="m 156.5853,654.16587 a 23.694312,23.694312 0 0 1 23.31519,19.42933 l 0.37912,4.26498 v 165.86018 h 165.86018 a 23.694312,23.694312 0 0 1 4.26497,47.00952 l -4.26497,0.37912 H 156.5853 a 23.694312,23.694312 0 0 1 -23.31521,-19.42935 l -0.37911,-4.26497 v -189.5545 a 23.694312,23.694312 0 0 1 23.69432,-23.69431 z m 710.82936,0 a 23.694312,23.694312 0 0 1 23.69432,23.69431 v 189.5545 A 23.694312,23.694312 0 0 1 867.41466,891.109 h -189.5545 a 23.69432,23.69432 0 1 1 0,-47.38864 H 843.72034 V 677.86018 a 23.694312,23.694312 0 0 1 23.69432,-23.69431 z M 634.78391,354.85931 a 189.55449,189.55449 0 0 1 15.63823,250.35411 7.3926253,7.3926253 0 0 1 1.13733,0.94777 l 100.46389,100.55866 a 23.694312,23.694312 0 0 1 -33.45638,33.50376 l -100.55865,-100.51128 -0.90039,-1.13732 a 189.55449,189.55449 0 1 1 17.67597,-283.7157 z m -234.5737,33.50376 A 142.17792,142.17792 0 1 0 601.28014,589.433 142.21142,142.21142 0 0 0 400.16282,388.31568 Z M 346.13979,132.891 a 23.694315,23.694315 0 0 1 0,47.38863 H 180.27961 v 165.86018 a 23.694315,23.694315 0 0 1 -47.38863,0 V 156.58532 A 23.694312,23.694312 0 0 1 156.5853,132.891 Z m 521.27487,0 a 23.694312,23.694312 0 0 1 23.3152,19.42934 l 0.37912,4.26498 v 189.55449 a 23.694312,23.694312 0 0 1 -47.00953,4.26497 l -0.37911,-4.26497 V 180.27963 H 677.86016 a 23.694312,23.694312 0 0 1 -4.26498,-47.00952 l 4.26498,-0.37911 z"
     p-id="6485"
     id="path6"
     style="stroke-width:0.740447;fill:#161616;fill-opacity:1" />
</svg>
