<?xml version="1.0" encoding="UTF-8" standalone="no"?>
<svg
   xmlns:dc="http://purl.org/dc/elements/1.1/"
   xmlns:cc="http://creativecommons.org/ns#"
   xmlns:rdf="http://www.w3.org/1999/02/22-rdf-syntax-ns#"
   xmlns:svg="http://www.w3.org/2000/svg"
   xmlns="http://www.w3.org/2000/svg"
   t="1613877978998"
   class="icon"
   viewBox="0 0 1024 1024"
   version="1.1"
   p-id="6090"
   width="128"
   height="128"
   id="svg10">
  <metadata
     id="metadata14">
    <rdf:RDF>
      <cc:Work
         rdf:about="">
        <dc:format>image/svg+xml</dc:format>
        <dc:type
           rdf:resource="http://purl.org/dc/dcmitype/StillImage" />
        <dc:title></dc:title>
      </cc:Work>
    </rdf:RDF>
  </metadata>
  <defs
     id="defs4">
    <style
       type="text/css"
       id="style2" />
  </defs>
  <path
     d="m 112.46792,644.10546 c 16.16249,0 29.23042,13.10522 29.23042,29.24906 v 165.63282 a 43.360939,43.360939 0 0 0 43.305,43.30501 h 165.65148 a 29.230419,29.230419 0 1 1 0,58.46083 H 185.00334 c -56.09331,0 -101.765842,-45.67252 -101.765842,-101.78448 V 673.35452 c 0,-16.14384 13.105219,-29.24906 29.230422,-29.24906 z m 799.06417,0 c 16.16248,0 29.23041,13.10522 29.23041,29.24906 v 165.63282 c 0,56.11196 -45.67252,101.78448 -101.78448,101.78448 H 673.36384 a 29.239739,29.239739 0 1 1 0,-58.47947 h 165.63282 a 43.360939,43.360939 0 0 0 43.30501,-43.30501 V 673.35452 c 0,-16.14384 13.06793,-29.23042 29.23042,-29.23042 z M 838.99666,83.228178 c 56.09332,0 101.76584,45.672532 101.76584,101.784492 v 165.63282 a 29.239739,29.239739 0 1 1 -58.47947,0 V 185.01267 A 43.360939,43.360939 0 0 0 838.97802,141.70765 H 673.32655 a 29.239739,29.239739 0 1 1 0,-58.479472 z m -488.34184,0 a 29.24906,29.24906 0 0 1 0,58.460822 H 185.022 a 43.360939,43.360939 0 0 0 -43.30501,43.32367 v 165.65147 a 29.239746,29.239746 0 1 1 -58.479492,0 V 184.99402 c 0,-56.09331 45.672532,-101.765841 101.784502,-101.765841 z"
     fill="#2c2c2c"
     p-id="6091"
     id="path6"
     style="stroke-width:0.837627" />
  <path
     d="m 450.13703,619.66598 c -76.58071,0 -138.88177,-62.31969 -138.88177,-138.90039 0,-76.618 62.30106,-138.91906 138.88177,-138.91906 76.59936,0 138.90041,62.30106 138.90041,138.91906 0,76.5807 -62.30105,138.88177 -138.88176,138.88177 z m 273.5132,114.46095 c 5.40614,4.39949 11.89349,6.50601 18.34357,6.50601 a 29.230418,29.230418 0 0 0 18.36222,-51.97347 L 622.18265,577.14394 a 195.92581,195.92581 0 0 0 25.33427,-96.37835 c 0,-108.8684 -88.54879,-197.39853 -197.37989,-197.39853 -108.83111,0 -197.36125,88.54877 -197.36125,197.39853 0,108.81246 88.54879,197.36123 197.36125,197.36123 52.77508,0 100.70326,-20.95342 136.16006,-54.80702 l 137.35314,110.82578 z"
     fill="#2c2c2c"
     p-id="6092"
     id="path8"
     style="stroke-width:0.837627" />
</svg>
